<?xml version="1.0" encoding="UTF-8"?>
<svg xmlns="http://www.w3.org/2000/svg" viewBox="0 0 360 220" role="img" aria-label="Arm raise">
  <defs>
    <linearGradient id="bg" x1="0" y1="0" x2="0" y2="1">
      <stop offset="0%" stop-color="#f8fafc"/>
      <stop offset="100%" stop-color="#eef2f7"/>
    </linearGradient>
    <linearGradient id="skin" x1="0" y1="0" x2="1" y2="1">
      <stop offset="0%" stop-color="#d1d9e6"/>
      <stop offset="100%" stop-color="#a8b4c4"/>
    </linearGradient>
    <linearGradient id="muscle" x1="0" y1="0" x2="0" y2="1">
      <stop offset="0%" stop-color="#ff7043"/>
      <stop offset="100%" stop-color="#d32f2f"/>
    </linearGradient>
    <filter id="soft" x="-20%" y="-20%" width="140%" height="140%">
      <feDropShadow dx="0" dy="2" stdDeviation="2" flood-color="#94a3b8" flood-opacity="0.35"/>
    </filter>
    <marker id="arrow" markerWidth="8" markerHeight="8" refX="6" refY="3" orient="auto">
      <path d="M0,0 L6,3 L0,6 Z" fill="#94a3b8"/>
    </marker>
  </defs>
  <rect width="360" height="220" fill="url(#bg)"/>
  <line x1="180" y1="12" x2="180" y2="208" stroke="#cbd5e1" stroke-width="1" stroke-dasharray="4 4"/>
  
  <text x="90" y="18" text-anchor="middle" font-family="system-ui,sans-serif" font-size="11" font-weight="600" fill="#64748b">вниз</text>
  <text x="270" y="18" text-anchor="middle" font-family="system-ui,sans-serif" font-size="11" font-weight="600" fill="#64748b">вверх</text>
  <path d="M 160 112 L 194 112" stroke="#94a3b8" stroke-width="2.5" marker-end="url(#arrow)"/><g transform="translate(8, 24)" filter="url(#soft)">
    <line x1="8" y1="168" x2="152" y2="168" stroke="#cbd5e1" stroke-width="2" stroke-linecap="round"/>
    <line x1="74" y1="58" x2="62" y2="72" stroke="#5d6b7a" stroke-width="7" stroke-linecap="round"/><line x1="86" y1="58" x2="98" y2="72" stroke="#5d6b7a" stroke-width="7" stroke-linecap="round"/><line x1="62" y1="72" x2="58" y2="105" stroke="#5d6b7a" stroke-width="6" stroke-linecap="round"/><line x1="98" y1="72" x2="102" y2="105" stroke="#5d6b7a" stroke-width="6" stroke-linecap="round"/><line x1="74" y1="95" x2="68" y2="155" stroke="#5d6b7a" stroke-width="9" stroke-linecap="round"/><line x1="86" y1="95" x2="92" y2="155" stroke="#5d6b7a" stroke-width="9" stroke-linecap="round"/>
    <path d="M70 52 L74 95 L86 95 L90 52 Z" fill="url(#skin)" stroke="#5d6b7a"/>
    <circle cx="80" cy="42" r="10" fill="url(#skin)" stroke="#5d6b7a" stroke-width="1.5"/>
    <ellipse cx="58" cy="95" rx="8" ry="14" fill="url(#muscle)" transform="rotate(-10 58 95)"/><ellipse cx="102" cy="95" rx="8" ry="14" fill="url(#muscle)" transform="rotate(10 102 95)"/></g><g transform="translate(188, 24)" filter="url(#soft)">
    <line x1="8" y1="168" x2="152" y2="168" stroke="#cbd5e1" stroke-width="2" stroke-linecap="round"/>
    <line x1="74" y1="58" x2="48" y2="38" stroke="#5d6b7a" stroke-width="7" stroke-linecap="round"/><line x1="86" y1="58" x2="112" y2="38" stroke="#5d6b7a" stroke-width="7" stroke-linecap="round"/><line x1="74" y1="95" x2="68" y2="155" stroke="#5d6b7a" stroke-width="9" stroke-linecap="round"/><line x1="86" y1="95" x2="92" y2="155" stroke="#5d6b7a" stroke-width="9" stroke-linecap="round"/>
    <path d="M70 52 L74 95 L86 95 L90 52 Z" fill="url(#skin)" stroke="#5d6b7a"/>
    <circle cx="80" cy="42" r="10" fill="url(#skin)" stroke="#5d6b7a" stroke-width="1.5"/>
    <ellipse cx="45" cy="42" rx="9" ry="14" fill="url(#muscle)" transform="rotate(-35 45 42)"/><ellipse cx="115" cy="42" rx="9" ry="14" fill="url(#muscle)" transform="rotate(35 115 42)"/><ellipse cx="80" cy="68" rx="20" ry="10" fill="url(#muscle)" transform="rotate(0 80 68)"/></g>
</svg>