<?xml version="1.0" encoding="UTF-8"?>
<svg xmlns="http://www.w3.org/2000/svg" viewBox="0 0 360 220" role="img" aria-label="Burpee">
  <defs>
    <linearGradient id="bg" x1="0" y1="0" x2="0" y2="1">
      <stop offset="0%" stop-color="#f8fafc"/>
      <stop offset="100%" stop-color="#eef2f7"/>
    </linearGradient>
    <linearGradient id="skin" x1="0" y1="0" x2="1" y2="1">
      <stop offset="0%" stop-color="#d1d9e6"/>
      <stop offset="100%" stop-color="#a8b4c4"/>
    </linearGradient>
    <linearGradient id="muscle" x1="0" y1="0" x2="0" y2="1">
      <stop offset="0%" stop-color="#ff7043"/>
      <stop offset="100%" stop-color="#d32f2f"/>
    </linearGradient>
    <filter id="soft" x="-20%" y="-20%" width="140%" height="140%">
      <feDropShadow dx="0" dy="2" stdDeviation="2" flood-color="#94a3b8" flood-opacity="0.35"/>
    </filter>
    <marker id="arrow" markerWidth="8" markerHeight="8" refX="6" refY="3" orient="auto">
      <path d="M0,0 L6,3 L0,6 Z" fill="#94a3b8"/>
    </marker>
  </defs>
  <rect width="360" height="220" fill="url(#bg)"/>
  <line x1="180" y1="12" x2="180" y2="208" stroke="#cbd5e1" stroke-width="1" stroke-dasharray="4 4"/>
  
  <text x="90" y="18" text-anchor="middle" font-family="system-ui,sans-serif" font-size="11" font-weight="600" fill="#64748b">присед</text>
  <text x="270" y="18" text-anchor="middle" font-family="system-ui,sans-serif" font-size="11" font-weight="600" fill="#64748b">прыжок</text>
  <path d="M 160 112 L 194 112" stroke="#94a3b8" stroke-width="2.5" marker-end="url(#arrow)"/><g transform="translate(8, 24)" filter="url(#soft)">
    <line x1="8" y1="168" x2="152" y2="168" stroke="#cbd5e1" stroke-width="2" stroke-linecap="round"/>
    <line x1="70" y1="100" x2="80" y2="55" stroke="#5d6b7a" stroke-width="8" stroke-linecap="round"/><line x1="90" y1="100" x2="80" y2="55" stroke="#5d6b7a" stroke-width="8" stroke-linecap="round"/><line x1="74" y1="130" x2="62" y2="165" stroke="#5d6b7a" stroke-width="9" stroke-linecap="round"/><line x1="86" y1="130" x2="98" y2="165" stroke="#5d6b7a" stroke-width="9" stroke-linecap="round"/>
    <path d="M70 105 L74 130 L86 130 L90 105 Z" fill="url(#skin)" stroke="#5d6b7a"/>
    <circle cx="80" cy="95" r="10" fill="url(#skin)" stroke="#5d6b7a" stroke-width="1.5"/>
    <ellipse cx="80" cy="72" rx="14" ry="12" fill="url(#muscle)" transform="rotate(0 80 72)"/></g><g transform="translate(188, 24)" filter="url(#soft)">
    <line x1="8" y1="168" x2="152" y2="168" stroke="#cbd5e1" stroke-width="2" stroke-linecap="round"/>
    <line x1="70" y1="54" x2="52" y2="68" stroke="#5d6b7a" stroke-width="7" stroke-linecap="round"/><line x1="90" y1="54" x2="108" y2="68" stroke="#5d6b7a" stroke-width="7" stroke-linecap="round"/><line x1="74" y1="78" x2="62" y2="128" stroke="#5d6b7a" stroke-width="10" stroke-linecap="round"/><line x1="86" y1="78" x2="98" y2="128" stroke="#5d6b7a" stroke-width="10" stroke-linecap="round"/><line x1="62" y1="128" x2="58" y2="165" stroke="#5d6b7a" stroke-width="9" stroke-linecap="round"/><line x1="98" y1="128" x2="102" y2="165" stroke="#5d6b7a" stroke-width="9" stroke-linecap="round"/>
    <path d="M70 48 L74 78 L86 78 L90 48 Z" fill="url(#skin)" stroke="#5d6b7a"/>
    <circle cx="80" cy="38" r="10" fill="url(#skin)" stroke="#5d6b7a" stroke-width="1.5"/>
    <ellipse cx="80" cy="65" rx="18" ry="12" fill="url(#muscle)" transform="rotate(0 80 65)"/><ellipse cx="64" cy="110" rx="12" ry="16" fill="url(#muscle)" transform="rotate(0 64 110)"/><ellipse cx="96" cy="110" rx="12" ry="16" fill="url(#muscle)" transform="rotate(0 96 110)"/></g>
</svg>