<?xml version="1.0" encoding="UTF-8"?>
<svg xmlns="http://www.w3.org/2000/svg" viewBox="0 0 400 248" role="img" aria-label="Burpee / Бёрпи">
  <defs>
    <linearGradient id="burpee-bg" x1="0" y1="0" x2="1" y2="1">
      <stop offset="0%" stop-color="#dbeafe"/>
      <stop offset="45%" stop-color="#ecfdf5"/>
      <stop offset="100%" stop-color="#f8fafc"/>
    </linearGradient>
    <linearGradient id="burpee-card" x1="0" y1="0" x2="0" y2="1">
      <stop offset="0%" stop-color="#ffffff"/>
      <stop offset="100%" stop-color="#f1f5f9"/>
    </linearGradient>
    <linearGradient id="burpee-body" x1="0" y1="0" x2="0" y2="1">
      <stop offset="0%" stop-color="#334155"/>
      <stop offset="100%" stop-color="#0f172a"/>
    </linearGradient>
    <radialGradient id="burpee-muscle" cx="50%" cy="50%" r="50%">
      <stop offset="0%" stop-color="#fb923c"/>
      <stop offset="100%" stop-color="#e11d48"/>
    </radialGradient>
    <filter id="burpee-shadow" x="-25%" y="-25%" width="150%" height="150%">
      <feDropShadow dx="0" dy="3" stdDeviation="4" flood-color="#64748b" flood-opacity="0.25"/>
    </filter>
    <filter id="burpee-glow" x="-40%" y="-40%" width="180%" height="180%">
      <feGaussianBlur stdDeviation="2" result="b"/>
      <feMerge><feMergeNode in="b"/><feMergeNode in="SourceGraphic"/></feMerge>
    </filter>
    <marker id="burpee-arrow" markerWidth="7" markerHeight="7" refX="5" refY="3.5" orient="auto">
      <path d="M0,0 L7,3.5 L0,7 Z" fill="#10b981"/>
    </marker>
  </defs>
  <rect width="400" height="248" fill="url(#burpee-bg)" rx="16"/>
  <circle cx="48" cy="42" r="52" fill="#93c5fd" opacity="0.12"/>
  <circle cx="360" cy="218" r="64" fill="#6ee7b7" opacity="0.14"/>
  <text x="200" y="22" text-anchor="middle" font-family="system-ui,sans-serif" font-size="13" font-weight="700" fill="#0f172a">Burpee / Бёрпи</text>
  
  <text x="100" y="42" text-anchor="middle" font-family="system-ui,sans-serif" font-size="10" font-weight="600" fill="#64748b">присед</text>
  <text x="300" y="42" text-anchor="middle" font-family="system-ui,sans-serif" font-size="10" font-weight="600" fill="#64748b">прыжок</text>
  <path d="M 188 132 L 212 132" stroke="#10b981" stroke-width="3" marker-end="url(#burpee-arrow)"/>
  
  <g transform="translate(16, 48)">
    <rect x="0" y="0" width="168" height="178" rx="14" fill="url(#burpee-card)" filter="url(#burpee-shadow)" stroke="#e2e8f0" stroke-width="1"/>
    
    <line x1="12" y1="168" x2="156" y2="168" stroke="#94a3b8" stroke-width="2.5" stroke-linecap="round" opacity="0.6"/>
    <line x1="74" y1="108" x2="84" y2="58" stroke="url(#burpee-body)" stroke-width="9" stroke-linecap="round"/><circle cx="74" cy="108" r="4.5" fill="#475569"/><circle cx="84" cy="58" r="4.5" fill="#475569"/><line x1="94" y1="108" x2="84" y2="58" stroke="url(#burpee-body)" stroke-width="9" stroke-linecap="round"/><circle cx="94" cy="108" r="4.5" fill="#475569"/><circle cx="84" cy="58" r="4.5" fill="#475569"/><line x1="78" y1="138" x2="64" y2="168" stroke="url(#burpee-body)" stroke-width="10" stroke-linecap="round"/><circle cx="78" cy="138" r="4.5" fill="#475569"/><circle cx="64" cy="168" r="4.5" fill="#475569"/><line x1="90" y1="138" x2="104" y2="168" stroke="url(#burpee-body)" stroke-width="10" stroke-linecap="round"/><circle cx="90" cy="138" r="4.5" fill="#475569"/><circle cx="104" cy="168" r="4.5" fill="#475569"/>
    <path d="M74 112 L78 138 L90 138 L94 112 Z" fill="url(#burpee-body)"/>
    <circle cx="84" cy="102" r="11" fill="url(#burpee-body)" stroke="#64748b" stroke-width="1"/>
    <ellipse cx="84" cy="75" rx="16" ry="12" fill="url(#burpee-muscle)" opacity="0.88" filter="url(#burpee-glow)" transform="rotate(0 84 75)"/>
  </g>
  
  <g transform="translate(216, 48)">
    <rect x="0" y="0" width="168" height="178" rx="14" fill="url(#burpee-card)" filter="url(#burpee-shadow)" stroke="#e2e8f0" stroke-width="1"/>
    
    <line x1="12" y1="168" x2="156" y2="168" stroke="#94a3b8" stroke-width="2.5" stroke-linecap="round" opacity="0.6"/>
    <line x1="74" y1="60" x2="54" y2="74" stroke="url(#burpee-body)" stroke-width="8" stroke-linecap="round"/><circle cx="74" cy="60" r="4.5" fill="#475569"/><circle cx="54" cy="74" r="4.5" fill="#475569"/><line x1="94" y1="60" x2="114" y2="74" stroke="url(#burpee-body)" stroke-width="8" stroke-linecap="round"/><circle cx="94" cy="60" r="4.5" fill="#475569"/><circle cx="114" cy="74" r="4.5" fill="#475569"/><line x1="78" y1="86" x2="64" y2="136" stroke="url(#burpee-body)" stroke-width="10" stroke-linecap="round"/><circle cx="78" cy="86" r="4.5" fill="#475569"/><circle cx="64" cy="136" r="4.5" fill="#475569"/><line x1="90" y1="86" x2="104" y2="136" stroke="url(#burpee-body)" stroke-width="10" stroke-linecap="round"/><circle cx="90" cy="86" r="4.5" fill="#475569"/><circle cx="104" cy="136" r="4.5" fill="#475569"/><line x1="64" y1="136" x2="60" y2="168" stroke="url(#burpee-body)" stroke-width="9" stroke-linecap="round"/><circle cx="64" cy="136" r="4.5" fill="#475569"/><circle cx="60" cy="168" r="4.5" fill="#475569"/><line x1="104" y1="136" x2="108" y2="168" stroke="url(#burpee-body)" stroke-width="9" stroke-linecap="round"/><circle cx="104" cy="136" r="4.5" fill="#475569"/><circle cx="108" cy="168" r="4.5" fill="#475569"/>
    <path d="M74 54 L78 86 L90 86 L94 54 Z" fill="url(#burpee-body)"/>
    <circle cx="84" cy="42" r="11" fill="url(#burpee-body)" stroke="#64748b" stroke-width="1"/>
    <ellipse cx="84" cy="70" rx="20" ry="12" fill="url(#burpee-muscle)" opacity="0.88" filter="url(#burpee-glow)" transform="rotate(0 84 70)"/><ellipse cx="66" cy="118" rx="13" ry="17" fill="url(#burpee-muscle)" opacity="0.88" filter="url(#burpee-glow)" transform="rotate(0 66 118)"/><ellipse cx="102" cy="118" rx="13" ry="17" fill="url(#burpee-muscle)" opacity="0.88" filter="url(#burpee-glow)" transform="rotate(0 102 118)"/>
  </g>
</svg>