<?xml version="1.0" encoding="UTF-8"?>
<svg xmlns="http://www.w3.org/2000/svg" viewBox="0 0 360 220" role="img" aria-label="Glute bridge">
  <defs>
    <linearGradient id="bg" x1="0" y1="0" x2="0" y2="1">
      <stop offset="0%" stop-color="#f8fafc"/>
      <stop offset="100%" stop-color="#eef2f7"/>
    </linearGradient>
    <linearGradient id="skin" x1="0" y1="0" x2="1" y2="1">
      <stop offset="0%" stop-color="#d1d9e6"/>
      <stop offset="100%" stop-color="#a8b4c4"/>
    </linearGradient>
    <linearGradient id="muscle" x1="0" y1="0" x2="0" y2="1">
      <stop offset="0%" stop-color="#ff7043"/>
      <stop offset="100%" stop-color="#d32f2f"/>
    </linearGradient>
    <filter id="soft" x="-20%" y="-20%" width="140%" height="140%">
      <feDropShadow dx="0" dy="2" stdDeviation="2" flood-color="#94a3b8" flood-opacity="0.35"/>
    </filter>
    <marker id="arrow" markerWidth="8" markerHeight="8" refX="6" refY="3" orient="auto">
      <path d="M0,0 L6,3 L0,6 Z" fill="#94a3b8"/>
    </marker>
  </defs>
  <rect width="360" height="220" fill="url(#bg)"/>
  <line x1="180" y1="12" x2="180" y2="208" stroke="#cbd5e1" stroke-width="1" stroke-dasharray="4 4"/>
  
  <text x="90" y="18" text-anchor="middle" font-family="system-ui,sans-serif" font-size="11" font-weight="600" fill="#64748b">лёжа</text>
  <text x="270" y="18" text-anchor="middle" font-family="system-ui,sans-serif" font-size="11" font-weight="600" fill="#64748b">мост</text>
  <path d="M 160 112 L 194 112" stroke="#94a3b8" stroke-width="2.5" marker-end="url(#arrow)"/><g transform="translate(8, 24)" filter="url(#soft)">
    <line x1="8" y1="145" x2="152" y2="145" stroke="#cbd5e1" stroke-width="2" stroke-linecap="round"/>
    <line x1="100" y1="135" x2="125" y2="145" stroke="#5d6b7a" stroke-width="9" stroke-linecap="round"/><line x1="100" y1="135" x2="125" y2="158" stroke="#5d6b7a" stroke-width="9" stroke-linecap="round"/>
    <path d="M28 125 L100 128 L100 142 L28 138 Z" fill="url(#skin)" stroke="#5d6b7a"/>
    <circle cx="28" cy="115" r="10" fill="url(#skin)" stroke="#5d6b7a" stroke-width="1.5"/>
    <ellipse cx="65" cy="132" rx="12" ry="8" fill="url(#muscle)" transform="rotate(0 65 132)"/></g><g transform="translate(188, 24)" filter="url(#soft)">
    <line x1="8" y1="145" x2="152" y2="145" stroke="#cbd5e1" stroke-width="2" stroke-linecap="round"/>
    <line x1="100" y1="112" x2="125" y2="138" stroke="#5d6b7a" stroke-width="9" stroke-linecap="round"/><line x1="100" y1="112" x2="125" y2="155" stroke="#5d6b7a" stroke-width="9" stroke-linecap="round"/>
    <path d="M28 118 L100 105 L100 119 L28 128 Z" fill="url(#skin)" stroke="#5d6b7a"/>
    <circle cx="28" cy="108" r="10" fill="url(#skin)" stroke="#5d6b7a" stroke-width="1.5"/>
    <ellipse cx="72" cy="118" rx="28" ry="14" fill="url(#muscle)" transform="rotate(0 72 118)"/><ellipse cx="118" cy="142" rx="10" ry="10" fill="url(#muscle)" transform="rotate(0 118 142)"/></g>
</svg>