<?xml version="1.0" encoding="UTF-8"?>
<svg xmlns="http://www.w3.org/2000/svg" viewBox="0 0 400 248" role="img" aria-label="Knee push-up / С колен">
  <defs>
    <linearGradient id="knee-push-up-bg" x1="0" y1="0" x2="1" y2="1">
      <stop offset="0%" stop-color="#dbeafe"/>
      <stop offset="45%" stop-color="#ecfdf5"/>
      <stop offset="100%" stop-color="#f8fafc"/>
    </linearGradient>
    <linearGradient id="knee-push-up-card" x1="0" y1="0" x2="0" y2="1">
      <stop offset="0%" stop-color="#ffffff"/>
      <stop offset="100%" stop-color="#f1f5f9"/>
    </linearGradient>
    <linearGradient id="knee-push-up-body" x1="0" y1="0" x2="0" y2="1">
      <stop offset="0%" stop-color="#334155"/>
      <stop offset="100%" stop-color="#0f172a"/>
    </linearGradient>
    <radialGradient id="knee-push-up-muscle" cx="50%" cy="50%" r="50%">
      <stop offset="0%" stop-color="#fb923c"/>
      <stop offset="100%" stop-color="#e11d48"/>
    </radialGradient>
    <filter id="knee-push-up-shadow" x="-25%" y="-25%" width="150%" height="150%">
      <feDropShadow dx="0" dy="3" stdDeviation="4" flood-color="#64748b" flood-opacity="0.25"/>
    </filter>
    <filter id="knee-push-up-glow" x="-40%" y="-40%" width="180%" height="180%">
      <feGaussianBlur stdDeviation="2" result="b"/>
      <feMerge><feMergeNode in="b"/><feMergeNode in="SourceGraphic"/></feMerge>
    </filter>
    <marker id="knee-push-up-arrow" markerWidth="7" markerHeight="7" refX="5" refY="3.5" orient="auto">
      <path d="M0,0 L7,3.5 L0,7 Z" fill="#10b981"/>
    </marker>
  </defs>
  <rect width="400" height="248" fill="url(#knee-push-up-bg)" rx="16"/>
  <circle cx="48" cy="42" r="52" fill="#93c5fd" opacity="0.12"/>
  <circle cx="360" cy="218" r="64" fill="#6ee7b7" opacity="0.14"/>
  <text x="200" y="22" text-anchor="middle" font-family="system-ui,sans-serif" font-size="13" font-weight="700" fill="#0f172a">Knee push-up / С колен</text>
  
  <g transform="translate(116, 48)">
    <rect x="0" y="0" width="168" height="178" rx="14" fill="url(#knee-push-up-card)" filter="url(#knee-push-up-shadow)" stroke="#e2e8f0" stroke-width="1"/>
    
    <line x1="12" y1="168" x2="156" y2="168" stroke="#94a3b8" stroke-width="2.5" stroke-linecap="round" opacity="0.6"/><text x="84" y="28" text-anchor="middle" font-size="9" fill="#64748b">колени · knees</text>
    <line x1="72" y1="96" x2="42" y2="118" stroke="url(#knee-push-up-body)" stroke-width="8" stroke-linecap="round"/><circle cx="72" cy="96" r="4.5" fill="#475569"/><circle cx="42" cy="118" r="4.5" fill="#475569"/><line x1="96" y1="96" x2="126" y2="118" stroke="url(#knee-push-up-body)" stroke-width="8" stroke-linecap="round"/><circle cx="96" cy="96" r="4.5" fill="#475569"/><circle cx="126" cy="118" r="4.5" fill="#475569"/><line x1="76" y1="118" x2="60" y2="138" stroke="url(#knee-push-up-body)" stroke-width="10" stroke-linecap="round"/><circle cx="76" cy="118" r="4.5" fill="#475569"/><circle cx="60" cy="138" r="4.5" fill="#475569"/><line x1="92" y1="118" x2="108" y2="138" stroke="url(#knee-push-up-body)" stroke-width="10" stroke-linecap="round"/><circle cx="92" cy="118" r="4.5" fill="#475569"/><circle cx="108" cy="138" r="4.5" fill="#475569"/><line x1="60" y1="138" x2="50" y2="168" stroke="url(#knee-push-up-body)" stroke-width="9" stroke-linecap="round"/><circle cx="60" cy="138" r="4.5" fill="#475569"/><circle cx="50" cy="168" r="4.5" fill="#475569"/><line x1="108" y1="138" x2="118" y2="168" stroke="url(#knee-push-up-body)" stroke-width="9" stroke-linecap="round"/><circle cx="108" cy="138" r="4.5" fill="#475569"/><circle cx="118" cy="168" r="4.5" fill="#475569"/>
    <path d="M72 90 L76 118 L92 118 L96 90 Z" fill="url(#knee-push-up-body)"/>
    <circle cx="84" cy="78" r="11" fill="url(#knee-push-up-body)" stroke="#64748b" stroke-width="1"/>
    <ellipse cx="84" cy="106" rx="22" ry="10" fill="url(#knee-push-up-muscle)" opacity="0.88" filter="url(#knee-push-up-glow)" transform="rotate(0 84 106)"/><ellipse cx="48" cy="120" rx="9" ry="14" fill="url(#knee-push-up-muscle)" opacity="0.88" filter="url(#knee-push-up-glow)" transform="rotate(-15 48 120)"/><ellipse cx="120" cy="120" rx="9" ry="14" fill="url(#knee-push-up-muscle)" opacity="0.88" filter="url(#knee-push-up-glow)" transform="rotate(15 120 120)"/>
  </g>
</svg>