<?xml version="1.0" encoding="UTF-8"?>
<svg xmlns="http://www.w3.org/2000/svg" viewBox="0 0 400 248" role="img" aria-label="Push-up / Отжимания">
  <defs>
    <linearGradient id="push-up-bg" x1="0" y1="0" x2="1" y2="1">
      <stop offset="0%" stop-color="#dbeafe"/>
      <stop offset="45%" stop-color="#ecfdf5"/>
      <stop offset="100%" stop-color="#f8fafc"/>
    </linearGradient>
    <linearGradient id="push-up-card" x1="0" y1="0" x2="0" y2="1">
      <stop offset="0%" stop-color="#ffffff"/>
      <stop offset="100%" stop-color="#f1f5f9"/>
    </linearGradient>
    <linearGradient id="push-up-body" x1="0" y1="0" x2="0" y2="1">
      <stop offset="0%" stop-color="#334155"/>
      <stop offset="100%" stop-color="#0f172a"/>
    </linearGradient>
    <radialGradient id="push-up-muscle" cx="50%" cy="50%" r="50%">
      <stop offset="0%" stop-color="#fb923c"/>
      <stop offset="100%" stop-color="#e11d48"/>
    </radialGradient>
    <filter id="push-up-shadow" x="-25%" y="-25%" width="150%" height="150%">
      <feDropShadow dx="0" dy="3" stdDeviation="4" flood-color="#64748b" flood-opacity="0.25"/>
    </filter>
    <filter id="push-up-glow" x="-40%" y="-40%" width="180%" height="180%">
      <feGaussianBlur stdDeviation="2" result="b"/>
      <feMerge><feMergeNode in="b"/><feMergeNode in="SourceGraphic"/></feMerge>
    </filter>
    <marker id="push-up-arrow" markerWidth="7" markerHeight="7" refX="5" refY="3.5" orient="auto">
      <path d="M0,0 L7,3.5 L0,7 Z" fill="#10b981"/>
    </marker>
  </defs>
  <rect width="400" height="248" fill="url(#push-up-bg)" rx="16"/>
  <circle cx="48" cy="42" r="52" fill="#93c5fd" opacity="0.12"/>
  <circle cx="360" cy="218" r="64" fill="#6ee7b7" opacity="0.14"/>
  <text x="200" y="22" text-anchor="middle" font-family="system-ui,sans-serif" font-size="13" font-weight="700" fill="#0f172a">Push-up / Отжимания</text>
  
  <text x="100" y="42" text-anchor="middle" font-family="system-ui,sans-serif" font-size="10" font-weight="600" fill="#64748b">старт</text>
  <text x="300" y="42" text-anchor="middle" font-family="system-ui,sans-serif" font-size="10" font-weight="600" fill="#64748b">финиш</text>
  <path d="M 188 132 L 212 132" stroke="#10b981" stroke-width="3" marker-end="url(#push-up-arrow)"/>
  
  <g transform="translate(16, 48)">
    <rect x="0" y="0" width="168" height="178" rx="14" fill="url(#push-up-card)" filter="url(#push-up-shadow)" stroke="#e2e8f0" stroke-width="1"/>
    
    <line x1="12" y1="168" x2="156" y2="168" stroke="#94a3b8" stroke-width="2.5" stroke-linecap="round" opacity="0.6"/>
    <line x1="72" y1="70" x2="42" y2="92" stroke="url(#push-up-body)" stroke-width="8" stroke-linecap="round"/><circle cx="72" cy="70" r="4.5" fill="#475569"/><circle cx="42" cy="92" r="4.5" fill="#475569"/><line x1="96" y1="70" x2="126" y2="92" stroke="url(#push-up-body)" stroke-width="8" stroke-linecap="round"/><circle cx="96" cy="70" r="4.5" fill="#475569"/><circle cx="126" cy="92" r="4.5" fill="#475569"/><line x1="76" y1="92" x2="58" y2="132" stroke="url(#push-up-body)" stroke-width="10" stroke-linecap="round"/><circle cx="76" cy="92" r="4.5" fill="#475569"/><circle cx="58" cy="132" r="4.5" fill="#475569"/><line x1="92" y1="92" x2="110" y2="132" stroke="url(#push-up-body)" stroke-width="10" stroke-linecap="round"/><circle cx="92" cy="92" r="4.5" fill="#475569"/><circle cx="110" cy="132" r="4.5" fill="#475569"/><line x1="58" y1="132" x2="44" y2="168" stroke="url(#push-up-body)" stroke-width="9" stroke-linecap="round"/><circle cx="58" cy="132" r="4.5" fill="#475569"/><circle cx="44" cy="168" r="4.5" fill="#475569"/><line x1="110" y1="132" x2="124" y2="168" stroke="url(#push-up-body)" stroke-width="9" stroke-linecap="round"/><circle cx="110" cy="132" r="4.5" fill="#475569"/><circle cx="124" cy="168" r="4.5" fill="#475569"/>
    <path d="M72 64 L76 92 L92 92 L96 64 Z" fill="url(#push-up-body)"/>
    <circle cx="84" cy="52" r="11" fill="url(#push-up-body)" stroke="#64748b" stroke-width="1"/>
    <ellipse cx="84" cy="78" rx="24" ry="11" fill="url(#push-up-muscle)" opacity="0.88" filter="url(#push-up-glow)" transform="rotate(0 84 78)"/><ellipse cx="50" cy="95" rx="9" ry="15" fill="url(#push-up-muscle)" opacity="0.88" filter="url(#push-up-glow)" transform="rotate(-22 50 95)"/><ellipse cx="118" cy="95" rx="9" ry="15" fill="url(#push-up-muscle)" opacity="0.88" filter="url(#push-up-glow)" transform="rotate(22 118 95)"/>
  </g>
  
  <g transform="translate(216, 48)">
    <rect x="0" y="0" width="168" height="178" rx="14" fill="url(#push-up-card)" filter="url(#push-up-shadow)" stroke="#e2e8f0" stroke-width="1"/>
    
    <line x1="12" y1="168" x2="156" y2="168" stroke="#94a3b8" stroke-width="2.5" stroke-linecap="round" opacity="0.6"/>
    <line x1="72" y1="86" x2="42" y2="108" stroke="url(#push-up-body)" stroke-width="8" stroke-linecap="round"/><circle cx="72" cy="86" r="4.5" fill="#475569"/><circle cx="42" cy="108" r="4.5" fill="#475569"/><line x1="96" y1="86" x2="126" y2="108" stroke="url(#push-up-body)" stroke-width="8" stroke-linecap="round"/><circle cx="96" cy="86" r="4.5" fill="#475569"/><circle cx="126" cy="108" r="4.5" fill="#475569"/><line x1="76" y1="108" x2="58" y2="148" stroke="url(#push-up-body)" stroke-width="10" stroke-linecap="round"/><circle cx="76" cy="108" r="4.5" fill="#475569"/><circle cx="58" cy="148" r="4.5" fill="#475569"/><line x1="92" y1="108" x2="110" y2="148" stroke="url(#push-up-body)" stroke-width="10" stroke-linecap="round"/><circle cx="92" cy="108" r="4.5" fill="#475569"/><circle cx="110" cy="148" r="4.5" fill="#475569"/><line x1="58" y1="148" x2="44" y2="168" stroke="url(#push-up-body)" stroke-width="9" stroke-linecap="round"/><circle cx="58" cy="148" r="4.5" fill="#475569"/><circle cx="44" cy="168" r="4.5" fill="#475569"/><line x1="110" y1="148" x2="124" y2="168" stroke="url(#push-up-body)" stroke-width="9" stroke-linecap="round"/><circle cx="110" cy="148" r="4.5" fill="#475569"/><circle cx="124" cy="168" r="4.5" fill="#475569"/>
    <path d="M72 80 L76 108 L92 108 L96 80 Z" fill="url(#push-up-body)"/>
    <circle cx="84" cy="68" r="11" fill="url(#push-up-body)" stroke="#64748b" stroke-width="1"/>
    <ellipse cx="84" cy="94" rx="26" ry="12" fill="url(#push-up-muscle)" opacity="0.88" filter="url(#push-up-glow)" transform="rotate(0 84 94)"/><ellipse cx="50" cy="112" rx="10" ry="16" fill="url(#push-up-muscle)" opacity="0.88" filter="url(#push-up-glow)" transform="rotate(-18 50 112)"/><ellipse cx="118" cy="112" rx="10" ry="16" fill="url(#push-up-muscle)" opacity="0.88" filter="url(#push-up-glow)" transform="rotate(18 118 112)"/>
  </g>
</svg>