<?xml version="1.0" encoding="UTF-8"?>
<svg xmlns="http://www.w3.org/2000/svg" viewBox="0 0 360 220" role="img" aria-label="Stretch">
  <defs>
    <linearGradient id="bg" x1="0" y1="0" x2="0" y2="1">
      <stop offset="0%" stop-color="#f8fafc"/>
      <stop offset="100%" stop-color="#eef2f7"/>
    </linearGradient>
    <linearGradient id="skin" x1="0" y1="0" x2="1" y2="1">
      <stop offset="0%" stop-color="#d1d9e6"/>
      <stop offset="100%" stop-color="#a8b4c4"/>
    </linearGradient>
    <linearGradient id="muscle" x1="0" y1="0" x2="0" y2="1">
      <stop offset="0%" stop-color="#ff7043"/>
      <stop offset="100%" stop-color="#d32f2f"/>
    </linearGradient>
    <filter id="soft" x="-20%" y="-20%" width="140%" height="140%">
      <feDropShadow dx="0" dy="2" stdDeviation="2" flood-color="#94a3b8" flood-opacity="0.35"/>
    </filter>
    <marker id="arrow" markerWidth="8" markerHeight="8" refX="6" refY="3" orient="auto">
      <path d="M0,0 L6,3 L0,6 Z" fill="#94a3b8"/>
    </marker>
  </defs>
  <rect width="360" height="220" fill="url(#bg)"/>
  <line x1="180" y1="12" x2="180" y2="208" stroke="#cbd5e1" stroke-width="1" stroke-dasharray="4 4"/>
  <g transform="translate(100, 24)" filter="url(#soft)">
    <line x1="8" y1="168" x2="152" y2="168" stroke="#cbd5e1" stroke-width="2" stroke-linecap="round"/>
    <line x1="74" y1="70" x2="55" y2="88" stroke="#5d6b7a" stroke-width="7" stroke-linecap="round"/><line x1="86" y1="70" x2="105" y2="88" stroke="#5d6b7a" stroke-width="7" stroke-linecap="round"/><line x1="74" y1="115" x2="72" y2="155" stroke="#5d6b7a" stroke-width="9" stroke-linecap="round"/><line x1="86" y1="115" x2="88" y2="155" stroke="#5d6b7a" stroke-width="9" stroke-linecap="round"/>
    <path d="M72 65 L74 115 L86 115 L88 65 Z" fill="url(#skin)" stroke="#5d6b7a"/>
    <circle cx="80" cy="55" r="10" fill="url(#skin)" stroke="#5d6b7a" stroke-width="1.5"/>
    <ellipse cx="80" cy="105" rx="26" ry="10" fill="url(#muscle)" transform="rotate(0 80 105)"/></g>
</svg>