<?xml version="1.0" encoding="UTF-8"?>
<svg xmlns="http://www.w3.org/2000/svg" viewBox="0 0 320 200" role="img" aria-label="Superman">
  <rect width="320" height="200" fill="#ffffff"/>
  <g transform="translate(30,0)">
  <g fill="#bdbdbd" stroke="#757575" stroke-width="1.2" stroke-linejoin="round">
    <ellipse cx="120" cy="95" rx="11" ry="13"/>
      <path d="M120 82 L120 55"/>
      <path d="M120 108 L95 118 L55 125"/>
      <path d="M120 108 L145 118 L185 125"/>
      <path d="M120 55 L95 48 M120 55 L145 48"/>
  </g>
  <g fill="#e53935" opacity="0.9"><ellipse cx="120" cy="78" rx="14" ry="8"/>
      <path d="M95 48 L75 38" stroke="#e53935" stroke-width="5" fill="none"/>
      <path d="M145 48 L165 38" stroke="#e53935" stroke-width="5" fill="none"/>
      <path d="M55 125 L35 115" stroke="#e53935" stroke-width="5" fill="none"/>
      <path d="M185 125 L205 115" stroke="#e53935" stroke-width="5" fill="none"/></g>
  <g fill="rgba(229,57,53,0.35)"><ellipse cx="120" cy="78" rx="14" ry="8"/>
      <path d="M95 48 L75 38" stroke="#e53935" stroke-width="5" fill="none"/>
      <path d="M145 48 L165 38" stroke="#e53935" stroke-width="5" fill="none"/>
      <path d="M55 125 L35 115" stroke="#e53935" stroke-width="5" fill="none"/>
      <path d="M185 125 L205 115" stroke="#e53935" stroke-width="5" fill="none"/></g></g>
</svg>