<?xml version="1.0" encoding="UTF-8"?>
<svg xmlns="http://www.w3.org/2000/svg" viewBox="0 0 360 220" role="img" aria-label="Superman">
  <defs>
    <linearGradient id="bg" x1="0" y1="0" x2="0" y2="1">
      <stop offset="0%" stop-color="#f8fafc"/>
      <stop offset="100%" stop-color="#eef2f7"/>
    </linearGradient>
    <linearGradient id="skin" x1="0" y1="0" x2="1" y2="1">
      <stop offset="0%" stop-color="#d1d9e6"/>
      <stop offset="100%" stop-color="#a8b4c4"/>
    </linearGradient>
    <linearGradient id="muscle" x1="0" y1="0" x2="0" y2="1">
      <stop offset="0%" stop-color="#ff7043"/>
      <stop offset="100%" stop-color="#d32f2f"/>
    </linearGradient>
    <filter id="soft" x="-20%" y="-20%" width="140%" height="140%">
      <feDropShadow dx="0" dy="2" stdDeviation="2" flood-color="#94a3b8" flood-opacity="0.35"/>
    </filter>
    <marker id="arrow" markerWidth="8" markerHeight="8" refX="6" refY="3" orient="auto">
      <path d="M0,0 L6,3 L0,6 Z" fill="#94a3b8"/>
    </marker>
  </defs>
  <rect width="360" height="220" fill="url(#bg)"/>
  <line x1="180" y1="12" x2="180" y2="208" stroke="#cbd5e1" stroke-width="1" stroke-dasharray="4 4"/>
  <g transform="translate(90, 24)" filter="url(#soft)">
    <line x1="8" y1="155" x2="152" y2="155" stroke="#cbd5e1" stroke-width="2" stroke-linecap="round"/>
    <line x1="74" y1="100" x2="74" y2="55" stroke="#5d6b7a" stroke-width="8" stroke-linecap="round"/><line x1="74" y1="108" x2="48" y2="125" stroke="#5d6b7a" stroke-width="7" stroke-linecap="round"/><line x1="86" y1="108" x2="112" y2="125" stroke="#5d6b7a" stroke-width="7" stroke-linecap="round"/><line x1="48" y1="125" x2="38" y2="148" stroke="#5d6b7a" stroke-width="6" stroke-linecap="round"/><line x1="112" y1="125" x2="122" y2="148" stroke="#5d6b7a" stroke-width="6" stroke-linecap="round"/><line x1="74" y1="125" x2="68" y2="158" stroke="#5d6b7a" stroke-width="9" stroke-linecap="round"/><line x1="86" y1="125" x2="92" y2="158" stroke="#5d6b7a" stroke-width="9" stroke-linecap="round"/>
    <path d="M70 105 L74 125 L86 125 L90 105 Z" fill="url(#skin)" stroke="#5d6b7a"/>
    <circle cx="80" cy="95" r="10" fill="url(#skin)" stroke="#5d6b7a" stroke-width="1.5"/>
    <ellipse cx="80" cy="78" rx="16" ry="10" fill="url(#muscle)" transform="rotate(0 80 78)"/><ellipse cx="42" cy="55" rx="8" ry="12" fill="url(#muscle)" transform="rotate(-25 42 55)"/><ellipse cx="118" cy="55" rx="8" ry="12" fill="url(#muscle)" transform="rotate(25 118 55)"/><ellipse cx="40" cy="148" rx="9" ry="12" fill="url(#muscle)" transform="rotate(0 40 148)"/><ellipse cx="120" cy="148" rx="9" ry="12" fill="url(#muscle)" transform="rotate(0 120 148)"/></g>
</svg>